{"title":"The_View_Gen._Colin_Powell_20100909","uid":5821815,"size":467136573,"categoryP":"video","categoryS":"tv_shows","magnet":"?xt=urn:btih:3a4952bf6e2bf702a86eaa51c43c5a0112373378&amp;dn=The_View_Gen._Colin_Powell_20100909&amp;tr=udp%3A%2F%2Ftracker.openbittorrent.com%3A80&amp;tr=udp%3A%2F%2Fopen.demonii.com%3A1337&amp;tr=udp%3A%2F%2Ftracker.coppersurfer.tk%3A6969&amp;tr=udp%3A%2F%2Fexodus.desync.com%3A6969","seeders":0,"leechers":0,"uploader":"thetorrentlord","files":2,"time":1284086792,"description":"\nComplete name                    : The_View_Gen._Colin_Powell_20100909.avi\nFormat                           : AVI\nFormat/Info                      : Audio Video Interleave\nFile size                        : 445 MiB\nDuration                         : 27mn 48s\nOverall bit rate                 : 2 240 Kbps\nMovie name                       : The_View_Gen._Colin_Powell_20100909.mpg\nDirector                         : created.with.SUPER(C).v2010.bld.37\nWriting application              : SUPER(C)   \n\nVideo\nID                               : 0\nFormat                           : MPEG-4 Visual\nFormat profile                   : Simple@L3\nFormat settings, BVOP            : No\nFormat settings, QPel            : No\nFormat settings, GMC             : No warppoints\nFormat settings, Matrix          : Default (H.263)\nCodec ID                         : XVID\nCodec ID/Hint                    : XviD\nDuration                         : 13mn 54s\nBit rate                         : 4 371 Kbps\nWidth                            : 1 280 pixels\nHeight                           : 720 pixels\nDisplay aspect ratio             : 16:9\nFrame rate                       : 29.970 fps\nResolution                       : 8 bits\nColorimetry                      : 4:2:0\nScan type                        : Progressive\nBits/(Pixel*Frame)               : 0.158\nStream size                      : 435 MiB (98%)\nWriting library                  : XviD 1.1.2 (UTC 2006-11-01)\n\nAudio\nID                               : 1\nFormat                           : MPEG Audio\nFormat version                   : Version 2\nFormat profile                   : Layer 3\nMode                             : Joint stereo\nFormat_Settings_ModeExtension    : MS Stereo\nCodec ID                         : 55\nCodec ID/Hint                    : MP3\nDuration                         : 27mn 48s\nBit rate mode                    : Constant\nBit rate                         : 96.0 Kbps\nChannel(s)                       : 2 channels\nSampling rate                    : 22.05 KHz\nStream size                      : 9.55 MiB (2%)\nAlignment                        : Aligned on interleaves\nInterleave, duration             : 26 ms (0.78 video frame)\nInterleave, preload duration     : 26 ms\nWriting library                  : LAME3.98UUUUUUUUU\u001b\u0010\n\n","torrent":{"xt":"urn:btih:3a4952bf6e2bf702a86eaa51c43c5a0112373378","amp;dn":"The_View_Gen._Colin_Powell_20100909","amp;tr":["udp%3A%2F%2Ftracker.openbittorrent.com%3A80","udp%3A%2F%2Fopen.demonii.com%3A1337","udp%3A%2F%2Ftracker.coppersurfer.tk%3A6969","udp%3A%2F%2Fexodus.desync.com%3A6969"],"infoHash":"3a4952bf6e2bf702a86eaa51c43c5a0112373378","infoHashBuffer":{"type":"Buffer","data":[58,73,82,191,110,43,247,2,168,110,170,81,196,60,90,1,18,55,51,120]},"announce":[],"urlList":[]}}